<svg width="355" height="59" viewBox="0 0 355 59" fill="none" xmlns="http://www.w3.org/2000/svg">
<rect width="77" height="59" rx="12" fill="black"/>
<path d="M20.99 29.9C20.99 30.72 21.26 31.35 21.8 31.79C22.36 32.23 23.11 32.45 24.05 32.45C24.89 32.45 25.51 32.31 25.91 32.03C26.31 31.75 26.65 31.33 26.93 30.77C27.19 30.25 27.54 29.99 27.98 29.99H34.46C34.64 29.99 34.79 30.06 34.91 30.2C35.05 30.32 35.12 30.47 35.12 30.65C35.12 31.87 34.71 33.07 33.89 34.25C33.07 35.41 31.82 36.38 30.14 37.16C28.48 37.92 26.45 38.3 24.05 38.3C21.91 38.3 20 37.98 18.32 37.34C16.66 36.68 15.34 35.68 14.36 34.34C13.38 32.98 12.89 31.29 12.89 29.27V25.73C12.89 23.71 13.38 22.03 14.36 20.69C15.34 19.33 16.66 18.33 18.32 17.69C20 17.03 21.91 16.7 24.05 16.7C26.45 16.7 28.48 17.09 30.14 17.87C31.82 18.63 33.07 19.6 33.89 20.78C34.71 21.94 35.12 23.13 35.12 24.35C35.12 24.53 35.05 24.69 34.91 24.83C34.79 24.95 34.64 25.01 34.46 25.01H27.98C27.54 25.01 27.19 24.75 26.93 24.23C26.65 23.67 26.31 23.25 25.91 22.97C25.51 22.69 24.89 22.55 24.05 22.55C23.11 22.55 22.36 22.77 21.8 23.21C21.26 23.65 20.99 24.28 20.99 25.1V29.9ZM52.2983 17C54.1783 17 55.8183 17.32 57.2183 17.96C58.6183 18.6 59.6883 19.47 60.4283 20.57C61.1683 21.67 61.5383 22.9 61.5383 24.26C61.5383 26.5 60.8383 28.26 59.4383 29.54C58.0383 30.8 55.6583 31.43 52.2983 31.43H48.3383V37.19C48.3383 37.41 48.2583 37.6 48.0983 37.76C47.9383 37.92 47.7483 38 47.5283 38H41.0783C40.8583 38 40.6683 37.92 40.5083 37.76C40.3483 37.6 40.2683 37.41 40.2683 37.19V17.81C40.2683 17.59 40.3483 17.4 40.5083 17.24C40.6683 17.08 40.8583 17 41.0783 17H52.2983ZM52.1783 25.88C52.6583 25.88 53.0383 25.74 53.3183 25.46C53.5983 25.16 53.7383 24.77 53.7383 24.29C53.7383 23.79 53.5983 23.38 53.3183 23.06C53.0383 22.74 52.6583 22.58 52.1783 22.58H48.3683V25.88H52.1783Z" fill="white"/>
<path d="M105.17 38.3C102.49 38.3 100.45 37.58 99.05 36.14C97.67 34.7 96.93 32.71 96.83 30.17C96.81 29.63 96.8 28.75 96.8 27.53C96.8 26.29 96.81 25.39 96.83 24.83C96.93 22.31 97.68 20.33 99.08 18.89C100.48 17.43 102.51 16.7 105.17 16.7C106.95 16.7 108.46 17.02 109.7 17.66C110.94 18.28 111.88 19.1 112.52 20.12C113.16 21.14 113.51 22.23 113.57 23.39V23.45C113.57 23.61 113.5 23.75 113.36 23.87C113.24 23.97 113.1 24.02 112.94 24.02H111.29C110.89 24.02 110.64 23.79 110.54 23.33C110.2 21.83 109.59 20.78 108.71 20.18C107.83 19.56 106.65 19.25 105.17 19.25C101.73 19.25 99.95 21.16 99.83 24.98C99.81 25.52 99.8 26.35 99.8 27.47C99.8 28.59 99.81 29.44 99.83 30.02C99.95 33.84 101.73 35.75 105.17 35.75C106.65 35.75 107.83 35.45 108.71 34.85C109.61 34.23 110.22 33.17 110.54 31.67C110.6 31.41 110.69 31.23 110.81 31.13C110.93 31.03 111.09 30.98 111.29 30.98H112.94C113.12 30.98 113.27 31.04 113.39 31.16C113.53 31.26 113.59 31.4 113.57 31.58C113.51 32.76 113.16 33.86 112.52 34.88C111.88 35.9 110.94 36.73 109.7 37.37C108.46 37.99 106.95 38.3 105.17 38.3ZM117.92 38C117.72 38 117.55 37.94 117.41 37.82C117.29 37.68 117.23 37.51 117.23 37.31V17.39C117.23 17.19 117.29 17.03 117.41 16.91C117.55 16.77 117.72 16.7 117.92 16.7H119.42C119.62 16.7 119.78 16.77 119.9 16.91C120.04 17.03 120.11 17.19 120.11 17.39V24.38C120.69 23.64 121.37 23.08 122.15 22.7C122.93 22.3 123.9 22.1 125.06 22.1C126.98 22.1 128.47 22.72 129.53 23.96C130.61 25.18 131.15 26.81 131.15 28.85V37.31C131.15 37.51 131.08 37.68 130.94 37.82C130.82 37.94 130.66 38 130.46 38H128.96C128.76 38 128.59 37.94 128.45 37.82C128.33 37.68 128.27 37.51 128.27 37.31V29C128.27 27.58 127.92 26.48 127.22 25.7C126.54 24.92 125.55 24.53 124.25 24.53C122.99 24.53 121.98 24.93 121.22 25.73C120.48 26.51 120.11 27.6 120.11 29V37.31C120.11 37.51 120.04 37.68 119.9 37.82C119.78 37.94 119.62 38 119.42 38H117.92ZM135.932 19.49C135.732 19.49 135.562 19.43 135.422 19.31C135.302 19.17 135.242 19 135.242 18.8V17.18C135.242 16.98 135.302 16.81 135.422 16.67C135.562 16.53 135.732 16.46 135.932 16.46H137.822C138.022 16.46 138.192 16.53 138.332 16.67C138.472 16.81 138.542 16.98 138.542 17.18V18.8C138.542 19 138.472 19.17 138.332 19.31C138.192 19.43 138.022 19.49 137.822 19.49H135.932ZM136.172 38C135.972 38 135.802 37.94 135.662 37.82C135.542 37.68 135.482 37.51 135.482 37.31V23.09C135.482 22.89 135.542 22.73 135.662 22.61C135.802 22.47 135.972 22.4 136.172 22.4H137.612C137.812 22.4 137.972 22.47 138.092 22.61C138.232 22.73 138.302 22.89 138.302 23.09V37.31C138.302 37.51 138.232 37.68 138.092 37.82C137.972 37.94 137.812 38 137.612 38H136.172ZM143.467 38C143.267 38 143.097 37.94 142.957 37.82C142.837 37.68 142.777 37.51 142.777 37.31V17.39C142.777 17.19 142.837 17.03 142.957 16.91C143.097 16.77 143.267 16.7 143.467 16.7H144.877C145.077 16.7 145.237 16.77 145.357 16.91C145.497 17.03 145.567 17.19 145.567 17.39V37.31C145.567 37.51 145.497 37.68 145.357 37.82C145.237 37.94 145.077 38 144.877 38H143.467ZM155.742 38.3C153.662 38.3 152.092 37.62 151.032 36.26C149.972 34.9 149.412 33.18 149.352 31.1L149.322 30.2L149.352 29.3C149.412 27.24 149.972 25.53 151.032 24.17C152.092 22.79 153.662 22.1 155.742 22.1C157.802 22.1 159.422 22.83 160.602 24.29V17.39C160.602 17.19 160.662 17.03 160.782 16.91C160.922 16.77 161.092 16.7 161.292 16.7H162.732C162.932 16.7 163.092 16.77 163.212 16.91C163.352 17.03 163.422 17.19 163.422 17.39V37.31C163.422 37.51 163.352 37.68 163.212 37.82C163.092 37.94 162.932 38 162.732 38H161.382C161.182 38 161.012 37.94 160.872 37.82C160.752 37.68 160.692 37.51 160.692 37.31V36.05C159.532 37.55 157.882 38.3 155.742 38.3ZM156.372 35.87C157.752 35.87 158.782 35.42 159.462 34.52C160.162 33.6 160.542 32.51 160.602 31.25C160.622 31.03 160.632 30.65 160.632 30.11C160.632 29.55 160.622 29.16 160.602 28.94C160.562 27.76 160.182 26.73 159.462 25.85C158.742 24.97 157.712 24.53 156.372 24.53C154.952 24.53 153.912 24.97 153.252 25.85C152.612 26.73 152.262 27.89 152.202 29.33L152.172 30.2C152.172 33.98 153.572 35.87 156.372 35.87ZM168.574 38C168.374 38 168.204 37.94 168.064 37.82C167.944 37.68 167.884 37.51 167.884 37.31V23.12C167.884 22.92 167.944 22.75 168.064 22.61C168.204 22.47 168.374 22.4 168.574 22.4H169.954C170.154 22.4 170.324 22.47 170.464 22.61C170.604 22.75 170.674 22.92 170.674 23.12V24.44C171.494 23.08 172.894 22.4 174.874 22.4H176.044C176.244 22.4 176.404 22.47 176.524 22.61C176.664 22.73 176.734 22.89 176.734 23.09V24.32C176.734 24.52 176.664 24.68 176.524 24.8C176.404 24.92 176.244 24.98 176.044 24.98H174.244C173.164 24.98 172.314 25.3 171.694 25.94C171.074 26.56 170.764 27.41 170.764 28.49V37.31C170.764 37.51 170.694 37.68 170.554 37.82C170.414 37.94 170.244 38 170.044 38H168.574ZM185.228 38.3C183.168 38.3 181.518 37.67 180.278 36.41C179.058 35.13 178.388 33.39 178.268 31.19L178.238 30.17L178.268 29.18C178.408 27.02 179.088 25.3 180.308 24.02C181.548 22.74 183.178 22.1 185.198 22.1C187.418 22.1 189.138 22.81 190.358 24.23C191.578 25.63 192.188 27.53 192.188 29.93V30.44C192.188 30.64 192.118 30.81 191.978 30.95C191.858 31.07 191.698 31.13 191.498 31.13H181.118V31.4C181.178 32.7 181.568 33.81 182.288 34.73C183.028 35.63 183.998 36.08 185.198 36.08C186.118 36.08 186.868 35.9 187.448 35.54C188.048 35.16 188.488 34.77 188.768 34.37C188.948 34.13 189.078 33.99 189.158 33.95C189.258 33.89 189.428 33.86 189.668 33.86H191.138C191.318 33.86 191.468 33.91 191.588 34.01C191.708 34.11 191.768 34.25 191.768 34.43C191.768 34.87 191.488 35.4 190.928 36.02C190.388 36.64 189.618 37.18 188.618 37.64C187.638 38.08 186.508 38.3 185.228 38.3ZM189.338 29.06V28.97C189.338 27.59 188.958 26.47 188.198 25.61C187.458 24.73 186.458 24.29 185.198 24.29C183.938 24.29 182.938 24.73 182.198 25.61C181.478 26.47 181.118 27.59 181.118 28.97V29.06H189.338ZM196.465 38C196.265 38 196.095 37.94 195.955 37.82C195.835 37.68 195.775 37.51 195.775 37.31V23.09C195.775 22.89 195.835 22.73 195.955 22.61C196.095 22.47 196.265 22.4 196.465 22.4H197.875C198.075 22.4 198.235 22.47 198.355 22.61C198.495 22.73 198.565 22.89 198.565 23.09V24.41C199.145 23.67 199.825 23.1 200.605 22.7C201.405 22.3 202.395 22.1 203.575 22.1C205.495 22.1 206.985 22.72 208.045 23.96C209.125 25.18 209.665 26.81 209.665 28.85V37.31C209.665 37.51 209.595 37.68 209.455 37.82C209.335 37.94 209.175 38 208.975 38H207.475C207.275 38 207.105 37.94 206.965 37.82C206.845 37.68 206.785 37.51 206.785 37.31V29C206.785 27.58 206.435 26.48 205.735 25.7C205.055 24.92 204.065 24.53 202.765 24.53C201.505 24.53 200.505 24.93 199.765 25.73C199.025 26.51 198.655 27.6 198.655 29V37.31C198.655 37.51 198.585 37.68 198.445 37.82C198.325 37.94 198.165 38 197.965 38H196.465ZM213.659 23.33C213.299 23.33 213.099 23.11 213.059 22.67L212.549 17.39V17.27C212.549 17.09 212.599 16.95 212.699 16.85C212.819 16.75 212.969 16.7 213.149 16.7H215.099C215.299 16.7 215.459 16.76 215.579 16.88C215.699 17 215.749 17.17 215.729 17.39L215.219 22.67C215.139 23.11 214.929 23.33 214.589 23.33H213.659ZM224.349 38.3C222.949 38.3 221.769 38.08 220.809 37.64C219.869 37.18 219.159 36.66 218.679 36.08C218.219 35.5 217.989 35.02 217.989 34.64C217.989 34.44 218.059 34.29 218.199 34.19C218.359 34.07 218.519 34.01 218.679 34.01H220.029C220.229 34.01 220.409 34.11 220.569 34.31C221.049 34.87 221.569 35.31 222.129 35.63C222.689 35.95 223.439 36.11 224.379 36.11C225.419 36.11 226.259 35.91 226.899 35.51C227.559 35.09 227.889 34.52 227.889 33.8C227.889 33.32 227.749 32.93 227.469 32.63C227.209 32.31 226.749 32.04 226.089 31.82C225.449 31.58 224.489 31.32 223.209 31.04C221.469 30.66 220.229 30.11 219.489 29.39C218.769 28.67 218.409 27.74 218.409 26.6C218.409 25.84 218.629 25.12 219.069 24.44C219.529 23.74 220.189 23.18 221.049 22.76C221.929 22.32 222.979 22.1 224.199 22.1C225.479 22.1 226.569 22.31 227.469 22.73C228.369 23.15 229.039 23.65 229.479 24.23C229.939 24.79 230.169 25.26 230.169 25.64C230.169 25.82 230.099 25.97 229.959 26.09C229.839 26.21 229.689 26.27 229.509 26.27H228.249C228.009 26.27 227.809 26.17 227.649 25.97C227.329 25.59 227.049 25.3 226.809 25.1C226.589 24.88 226.259 24.69 225.819 24.53C225.399 24.37 224.859 24.29 224.199 24.29C223.239 24.29 222.499 24.5 221.979 24.92C221.459 25.32 221.199 25.85 221.199 26.51C221.199 26.93 221.309 27.29 221.529 27.59C221.749 27.87 222.169 28.13 222.789 28.37C223.429 28.61 224.349 28.86 225.549 29.12C227.449 29.52 228.789 30.1 229.569 30.86C230.369 31.6 230.769 32.55 230.769 33.71C230.769 34.57 230.519 35.35 230.019 36.05C229.519 36.75 228.779 37.3 227.799 37.7C226.839 38.1 225.689 38.3 224.349 38.3ZM242.315 43.7C242.115 43.7 241.945 43.63 241.805 43.49C241.685 43.37 241.625 43.21 241.625 43.01V23.09C241.625 22.89 241.685 22.73 241.805 22.61C241.945 22.47 242.115 22.4 242.315 22.4H243.695C243.895 22.4 244.055 22.47 244.175 22.61C244.315 22.73 244.385 22.89 244.385 23.09V24.41C245.505 22.87 247.145 22.1 249.305 22.1C251.405 22.1 252.975 22.76 254.015 24.08C255.075 25.4 255.645 27.1 255.725 29.18C255.745 29.4 255.755 29.74 255.755 30.2C255.755 30.66 255.745 31 255.725 31.22C255.645 33.28 255.075 34.98 254.015 36.32C252.955 37.64 251.385 38.3 249.305 38.3C247.225 38.3 245.605 37.55 244.445 36.05V43.01C244.445 43.21 244.385 43.37 244.265 43.49C244.145 43.63 243.985 43.7 243.785 43.7H242.315ZM248.675 35.87C250.095 35.87 251.125 35.43 251.765 34.55C252.425 33.67 252.785 32.51 252.845 31.07C252.865 30.87 252.875 30.58 252.875 30.2C252.875 26.42 251.475 24.53 248.675 24.53C247.295 24.53 246.255 24.99 245.555 25.91C244.875 26.81 244.505 27.89 244.445 29.15L244.415 30.29L244.445 31.46C244.485 32.64 244.865 33.67 245.585 34.55C246.305 35.43 247.335 35.87 248.675 35.87ZM260.156 38C259.956 38 259.786 37.94 259.646 37.82C259.526 37.68 259.466 37.51 259.466 37.31V23.12C259.466 22.92 259.526 22.75 259.646 22.61C259.786 22.47 259.956 22.4 260.156 22.4H261.536C261.736 22.4 261.906 22.47 262.046 22.61C262.186 22.75 262.256 22.92 262.256 23.12V24.44C263.076 23.08 264.476 22.4 266.456 22.4H267.626C267.826 22.4 267.986 22.47 268.106 22.61C268.246 22.73 268.316 22.89 268.316 23.09V24.32C268.316 24.52 268.246 24.68 268.106 24.8C267.986 24.92 267.826 24.98 267.626 24.98H265.826C264.746 24.98 263.896 25.3 263.276 25.94C262.656 26.56 262.346 27.41 262.346 28.49V37.31C262.346 37.51 262.276 37.68 262.136 37.82C261.996 37.94 261.826 38 261.626 38H260.156ZM271.313 19.49C271.113 19.49 270.943 19.43 270.803 19.31C270.683 19.17 270.623 19 270.623 18.8V17.18C270.623 16.98 270.683 16.81 270.803 16.67C270.943 16.53 271.113 16.46 271.313 16.46H273.203C273.403 16.46 273.573 16.53 273.713 16.67C273.853 16.81 273.923 16.98 273.923 17.18V18.8C273.923 19 273.853 19.17 273.713 19.31C273.573 19.43 273.403 19.49 273.203 19.49H271.313ZM271.553 38C271.353 38 271.183 37.94 271.043 37.82C270.923 37.68 270.863 37.51 270.863 37.31V23.09C270.863 22.89 270.923 22.73 271.043 22.61C271.183 22.47 271.353 22.4 271.553 22.4H272.993C273.193 22.4 273.353 22.47 273.473 22.61C273.613 22.73 273.683 22.89 273.683 23.09V37.31C273.683 37.51 273.613 37.68 273.473 37.82C273.353 37.94 273.193 38 272.993 38H271.553ZM284.428 38.3C282.288 38.3 280.608 37.7 279.388 36.5C278.188 35.28 277.548 33.58 277.468 31.4L277.438 30.2L277.468 29C277.548 26.82 278.188 25.13 279.388 23.93C280.608 22.71 282.288 22.1 284.428 22.1C285.868 22.1 287.088 22.36 288.088 22.88C289.088 23.4 289.828 24.04 290.308 24.8C290.808 25.56 291.078 26.32 291.118 27.08C291.138 27.28 291.078 27.44 290.938 27.56C290.798 27.68 290.628 27.74 290.428 27.74H288.988C288.788 27.74 288.638 27.7 288.538 27.62C288.438 27.54 288.338 27.38 288.238 27.14C287.898 26.18 287.418 25.5 286.798 25.1C286.178 24.68 285.398 24.47 284.458 24.47C283.218 24.47 282.228 24.86 281.488 25.64C280.768 26.4 280.378 27.57 280.318 29.15L280.288 30.23L280.318 31.25C280.378 32.85 280.768 34.03 281.488 34.79C282.208 35.55 283.198 35.93 284.458 35.93C285.398 35.93 286.178 35.73 286.798 35.33C287.418 34.91 287.898 34.22 288.238 33.26C288.338 33.02 288.438 32.86 288.538 32.78C288.638 32.68 288.788 32.63 288.988 32.63H290.428C290.628 32.63 290.798 32.7 290.938 32.84C291.078 32.96 291.138 33.12 291.118 33.32C291.078 34.06 290.808 34.82 290.308 35.6C289.828 36.36 289.088 37 288.088 37.52C287.108 38.04 285.888 38.3 284.428 38.3ZM300.921 38.3C298.861 38.3 297.211 37.67 295.971 36.41C294.751 35.13 294.081 33.39 293.961 31.19L293.931 30.17L293.961 29.18C294.101 27.02 294.781 25.3 296.001 24.02C297.241 22.74 298.871 22.1 300.891 22.1C303.111 22.1 304.831 22.81 306.051 24.23C307.271 25.63 307.881 27.53 307.881 29.93V30.44C307.881 30.64 307.811 30.81 307.671 30.95C307.551 31.07 307.391 31.13 307.191 31.13H296.811V31.4C296.871 32.7 297.261 33.81 297.981 34.73C298.721 35.63 299.691 36.08 300.891 36.08C301.811 36.08 302.561 35.9 303.141 35.54C303.741 35.16 304.181 34.77 304.461 34.37C304.641 34.13 304.771 33.99 304.851 33.95C304.951 33.89 305.121 33.86 305.361 33.86H306.831C307.011 33.86 307.161 33.91 307.281 34.01C307.401 34.11 307.461 34.25 307.461 34.43C307.461 34.87 307.181 35.4 306.621 36.02C306.081 36.64 305.311 37.18 304.311 37.64C303.331 38.08 302.201 38.3 300.921 38.3ZM305.031 29.06V28.97C305.031 27.59 304.651 26.47 303.891 25.61C303.151 24.73 302.151 24.29 300.891 24.29C299.631 24.29 298.631 24.73 297.891 25.61C297.171 26.47 296.811 27.59 296.811 28.97V29.06H305.031ZM316.868 38.3C315.468 38.3 314.288 38.08 313.328 37.64C312.388 37.18 311.678 36.66 311.198 36.08C310.738 35.5 310.508 35.02 310.508 34.64C310.508 34.44 310.578 34.29 310.718 34.19C310.878 34.07 311.038 34.01 311.198 34.01H312.548C312.748 34.01 312.928 34.11 313.088 34.31C313.568 34.87 314.088 35.31 314.648 35.63C315.208 35.95 315.958 36.11 316.898 36.11C317.938 36.11 318.778 35.91 319.418 35.51C320.078 35.09 320.408 34.52 320.408 33.8C320.408 33.32 320.268 32.93 319.988 32.63C319.728 32.31 319.268 32.04 318.608 31.82C317.968 31.58 317.008 31.32 315.728 31.04C313.988 30.66 312.748 30.11 312.008 29.39C311.288 28.67 310.928 27.74 310.928 26.6C310.928 25.84 311.148 25.12 311.588 24.44C312.048 23.74 312.708 23.18 313.568 22.76C314.448 22.32 315.498 22.1 316.718 22.1C317.998 22.1 319.088 22.31 319.988 22.73C320.888 23.15 321.558 23.65 321.998 24.23C322.458 24.79 322.688 25.26 322.688 25.64C322.688 25.82 322.618 25.97 322.478 26.09C322.358 26.21 322.208 26.27 322.028 26.27H320.768C320.528 26.27 320.328 26.17 320.168 25.97C319.848 25.59 319.568 25.3 319.328 25.1C319.108 24.88 318.778 24.69 318.338 24.53C317.918 24.37 317.378 24.29 316.718 24.29C315.758 24.29 315.018 24.5 314.498 24.92C313.978 25.32 313.718 25.85 313.718 26.51C313.718 26.93 313.828 27.29 314.048 27.59C314.268 27.87 314.688 28.13 315.308 28.37C315.948 28.61 316.868 28.86 318.068 29.12C319.968 29.52 321.308 30.1 322.088 30.86C322.888 31.6 323.288 32.55 323.288 33.71C323.288 34.57 323.038 35.35 322.538 36.05C322.038 36.75 321.298 37.3 320.318 37.7C319.358 38.1 318.208 38.3 316.868 38.3Z" fill="black"/>
</svg>
